<svg width="1512" height="1021" viewBox="0 0 1512 1021" fill="none" xmlns="http://www.w3.org/2000/svg">
<g clip-path="url(#clip0_250_1517)">
<rect width="1512" height="1021" fill="white"/>
<line x1="181.5" y1="2.18557e-08" x2="181.5" y2="1021" stroke="#D8D8D8"/>
<line x1="37.5" y1="2.18557e-08" x2="37.5" y2="1021" stroke="#D8D8D8"/>
<line x1="325.5" y1="2.18557e-08" x2="325.5" y2="1021" stroke="#D8D8D8"/>
<line x1="253.5" y1="2.18557e-08" x2="253.5" y2="1021" stroke="#D8D8D8"/>
<line x1="109.5" y1="2.18557e-08" x2="109.5" y2="1021" stroke="#D8D8D8"/>
<line x1="397.5" y1="2.18557e-08" x2="397.5" y2="1021" stroke="#D8D8D8"/>
<line x1="217.5" y1="2.18557e-08" x2="217.5" y2="1021" stroke="#D8D8D8"/>
<line x1="73.5" y1="2.18557e-08" x2="73.5" y2="1021" stroke="#D8D8D8"/>
<line x1="361.5" y1="2.18557e-08" x2="361.5" y2="1021" stroke="#D8D8D8"/>
<line x1="1.5" y1="2.18557e-08" x2="1.49996" y2="1021" stroke="#D8D8D8"/>
<line x1="289.5" y1="2.18557e-08" x2="289.5" y2="1021" stroke="#D8D8D8"/>
<line x1="145.5" y1="2.18557e-08" x2="145.5" y2="1021" stroke="#D8D8D8"/>
<line x1="433.5" y1="2.18557e-08" x2="433.5" y2="1021" stroke="#D8D8D8"/>
<line x1="199.5" y1="2.18557e-08" x2="199.5" y2="1021" stroke="#D8D8D8"/>
<line x1="55.5" y1="2.18557e-08" x2="55.5" y2="1021" stroke="#D8D8D8"/>
<line x1="343.5" y1="2.18557e-08" x2="343.5" y2="1021" stroke="#D8D8D8"/>
<line x1="271.5" y1="2.18557e-08" x2="271.5" y2="1021" stroke="#D8D8D8"/>
<line x1="127.5" y1="2.18557e-08" x2="127.5" y2="1021" stroke="#D8D8D8"/>
<line x1="415.5" y1="2.18557e-08" x2="415.5" y2="1021" stroke="#D8D8D8"/>
<line x1="235.5" y1="2.18557e-08" x2="235.5" y2="1021" stroke="#D8D8D8"/>
<line x1="91.5" y1="2.18557e-08" x2="91.5" y2="1021" stroke="#D8D8D8"/>
<line x1="379.5" y1="2.18557e-08" x2="379.5" y2="1021" stroke="#D8D8D8"/>
<line x1="19.5" y1="2.18557e-08" x2="19.5" y2="1021" stroke="#D8D8D8"/>
<line x1="307.5" y1="2.18557e-08" x2="307.5" y2="1021" stroke="#D8D8D8"/>
<line x1="163.5" y1="2.18557e-08" x2="163.5" y2="1021" stroke="#D8D8D8"/>
<line x1="451.5" y1="2.18557e-08" x2="451.5" y2="1021" stroke="#D8D8D8"/>
<line x1="469.5" y1="2.18557e-08" x2="469.5" y2="1021" stroke="#D8D8D8"/>
<line x1="757.5" y1="2.18557e-08" x2="757.5" y2="1021" stroke="#D8D8D8"/>
<line x1="613.5" y1="2.18557e-08" x2="613.5" y2="1021" stroke="#D8D8D8"/>
<line x1="901.5" y1="2.18557e-08" x2="901.5" y2="1021" stroke="#D8D8D8"/>
<line x1="937.5" y1="2.18557e-08" x2="937.5" y2="1021" stroke="#D8D8D8"/>
<line x1="919.5" y1="2.18557e-08" x2="919.5" y2="1021" stroke="#D8D8D8"/>
<line x1="541.5" y1="2.18557e-08" x2="541.5" y2="1021" stroke="#D8D8D8"/>
<line x1="829.5" y1="2.18557e-08" x2="829.5" y2="1021" stroke="#D8D8D8"/>
<line x1="685.5" y1="2.18557e-08" x2="685.5" y2="1021" stroke="#D8D8D8"/>
<line x1="505.5" y1="2.18557e-08" x2="505.5" y2="1021" stroke="#D8D8D8"/>
<line x1="793.5" y1="2.18557e-08" x2="793.5" y2="1021" stroke="#D8D8D8"/>
<line x1="649.5" y1="2.18557e-08" x2="649.5" y2="1021" stroke="#D8D8D8"/>
<line x1="577.5" y1="2.18557e-08" x2="577.5" y2="1021" stroke="#D8D8D8"/>
<line x1="865.5" y1="2.18557e-08" x2="865.5" y2="1021" stroke="#D8D8D8"/>
<line x1="721.5" y1="2.18557e-08" x2="721.5" y2="1021" stroke="#D8D8D8"/>
<line x1="487.5" y1="2.18557e-08" x2="487.5" y2="1021" stroke="#D8D8D8"/>
<line x1="775.5" y1="2.18557e-08" x2="775.5" y2="1021" stroke="#D8D8D8"/>
<line x1="631.5" y1="2.18557e-08" x2="631.5" y2="1021" stroke="#D8D8D8"/>
<line x1="559.5" y1="2.18557e-08" x2="559.5" y2="1021" stroke="#D8D8D8"/>
<line x1="847.5" y1="2.18557e-08" x2="847.5" y2="1021" stroke="#D8D8D8"/>
<line x1="703.5" y1="2.18557e-08" x2="703.5" y2="1021" stroke="#D8D8D8"/>
<line x1="523.5" y1="2.18557e-08" x2="523.5" y2="1021" stroke="#D8D8D8"/>
<line x1="811.5" y1="2.18557e-08" x2="811.5" y2="1021" stroke="#D8D8D8"/>
<line x1="667.5" y1="2.18557e-08" x2="667.5" y2="1021" stroke="#D8D8D8"/>
<line x1="595.5" y1="2.18557e-08" x2="595.5" y2="1021" stroke="#D8D8D8"/>
<line x1="883.5" y1="2.18557e-08" x2="883.5" y2="1021" stroke="#D8D8D8"/>
<line x1="739.5" y1="2.18557e-08" x2="739.5" y2="1021" stroke="#D8D8D8"/>
<line x1="948" y1="0.5" x2="-115" y2="0.499907" stroke="#D8D8D8"/>
<line x1="948" y1="288.5" x2="-115" y2="288.5" stroke="#D8D8D8"/>
<line x1="948" y1="144.5" x2="-115" y2="144.5" stroke="#D8D8D8"/>
<line x1="948" y1="432.5" x2="-115" y2="432.5" stroke="#D8D8D8"/>
<line x1="948" y1="72.5" x2="-115" y2="72.4999" stroke="#D8D8D8"/>
<line x1="948" y1="360.5" x2="-115" y2="360.5" stroke="#D8D8D8"/>
<line x1="948" y1="216.5" x2="-115" y2="216.5" stroke="#D8D8D8"/>
<line x1="948" y1="504.5" x2="-115" y2="504.5" stroke="#D8D8D8"/>
<line x1="948" y1="36.5" x2="-115" y2="36.4999" stroke="#D8D8D8"/>
<line x1="948" y1="324.5" x2="-115" y2="324.5" stroke="#D8D8D8"/>
<line x1="948" y1="180.5" x2="-115" y2="180.5" stroke="#D8D8D8"/>
<line x1="948" y1="468.5" x2="-115" y2="468.5" stroke="#D8D8D8"/>
<line x1="948" y1="108.5" x2="-115" y2="108.5" stroke="#D8D8D8"/>
<line x1="948" y1="396.5" x2="-115" y2="396.5" stroke="#D8D8D8"/>
<line x1="948" y1="252.5" x2="-115" y2="252.5" stroke="#D8D8D8"/>
<line x1="948" y1="540.5" x2="-115" y2="540.5" stroke="#D8D8D8"/>
<line x1="948" y1="18.5" x2="-115" y2="18.4999" stroke="#D8D8D8"/>
<line x1="948" y1="306.5" x2="-115" y2="306.5" stroke="#D8D8D8"/>
<line x1="948" y1="162.5" x2="-115" y2="162.5" stroke="#D8D8D8"/>
<line x1="948" y1="450.5" x2="-115" y2="450.5" stroke="#D8D8D8"/>
<line x1="948" y1="90.5" x2="-115" y2="90.4999" stroke="#D8D8D8"/>
<line x1="948" y1="378.5" x2="-115" y2="378.5" stroke="#D8D8D8"/>
<line x1="948" y1="234.5" x2="-115" y2="234.5" stroke="#D8D8D8"/>
<line x1="948" y1="522.5" x2="-115" y2="522.5" stroke="#D8D8D8"/>
<line x1="948" y1="54.5" x2="-115" y2="54.4999" stroke="#D8D8D8"/>
<line x1="948" y1="342.5" x2="-115" y2="342.5" stroke="#D8D8D8"/>
<line x1="948" y1="198.5" x2="-115" y2="198.5" stroke="#D8D8D8"/>
<line x1="948" y1="486.5" x2="-115" y2="486.5" stroke="#D8D8D8"/>
<line x1="948" y1="126.5" x2="-115" y2="126.5" stroke="#D8D8D8"/>
<line x1="948" y1="414.5" x2="-115" y2="414.5" stroke="#D8D8D8"/>
<line x1="948" y1="270.5" x2="-115" y2="270.5" stroke="#D8D8D8"/>
<line x1="948" y1="558.5" x2="-115" y2="558.5" stroke="#D8D8D8"/>
<line x1="948" y1="576.5" x2="-115" y2="576.5" stroke="#D8D8D8"/>
<line x1="948" y1="864.5" x2="-115" y2="864.5" stroke="#D8D8D8"/>
<line x1="948" y1="720.5" x2="-115" y2="720.5" stroke="#D8D8D8"/>
<line x1="948" y1="1008.5" x2="-115" y2="1008.5" stroke="#D8D8D8"/>
<line x1="948" y1="648.5" x2="-115" y2="648.5" stroke="#D8D8D8"/>
<line x1="948" y1="936.5" x2="-115" y2="936.5" stroke="#D8D8D8"/>
<line x1="948" y1="792.5" x2="-115" y2="792.5" stroke="#D8D8D8"/>
<line x1="948" y1="612.5" x2="-115" y2="612.5" stroke="#D8D8D8"/>
<line x1="948" y1="900.5" x2="-115" y2="900.5" stroke="#D8D8D8"/>
<line x1="948" y1="756.5" x2="-115" y2="756.5" stroke="#D8D8D8"/>
<line x1="948" y1="684.5" x2="-115" y2="684.5" stroke="#D8D8D8"/>
<line x1="948" y1="972.5" x2="-115" y2="972.5" stroke="#D8D8D8"/>
<line x1="948" y1="828.5" x2="-115" y2="828.5" stroke="#D8D8D8"/>
<line x1="948" y1="594.5" x2="-115" y2="594.5" stroke="#D8D8D8"/>
<line x1="948" y1="882.5" x2="-115" y2="882.5" stroke="#D8D8D8"/>
<line x1="948" y1="738.5" x2="-115" y2="738.5" stroke="#D8D8D8"/>
<line x1="948" y1="666.5" x2="-115" y2="666.5" stroke="#D8D8D8"/>
<line x1="948" y1="954.5" x2="-115" y2="954.5" stroke="#D8D8D8"/>
<line x1="948" y1="810.5" x2="-115" y2="810.5" stroke="#D8D8D8"/>
<line x1="948" y1="630.5" x2="-115" y2="630.5" stroke="#D8D8D8"/>
<line x1="948" y1="918.5" x2="-115" y2="918.5" stroke="#D8D8D8"/>
<line x1="948" y1="774.5" x2="-115" y2="774.5" stroke="#D8D8D8"/>
<line x1="948" y1="702.5" x2="-115" y2="702.5" stroke="#D8D8D8"/>
<line x1="948" y1="990.5" x2="-115" y2="990.5" stroke="#D8D8D8"/>
<line x1="948" y1="846.5" x2="-115" y2="846.5" stroke="#D8D8D8"/>
<line x1="956.5" y1="2.18557e-08" x2="956.5" y2="1021" stroke="#D8D8D8"/>
<line x1="1244.5" y1="2.18557e-08" x2="1244.5" y2="1021" stroke="#D8D8D8"/>
<line x1="1100.5" y1="2.18557e-08" x2="1100.5" y2="1021" stroke="#D8D8D8"/>
<line x1="1388.5" y1="2.18557e-08" x2="1388.5" y2="1021" stroke="#D8D8D8"/>
<line x1="1028.5" y1="2.18557e-08" x2="1028.5" y2="1021" stroke="#D8D8D8"/>
<line x1="1316.5" y1="2.18557e-08" x2="1316.5" y2="1021" stroke="#D8D8D8"/>
<line x1="1172.5" y1="2.18557e-08" x2="1172.5" y2="1021" stroke="#D8D8D8"/>
<line x1="1460.5" y1="2.18557e-08" x2="1460.5" y2="1021" stroke="#D8D8D8"/>
<line x1="992.5" y1="2.18557e-08" x2="992.5" y2="1021" stroke="#D8D8D8"/>
<line x1="1280.5" y1="2.18557e-08" x2="1280.5" y2="1021" stroke="#D8D8D8"/>
<line x1="1136.5" y1="2.18557e-08" x2="1136.5" y2="1021" stroke="#D8D8D8"/>
<line x1="1424.5" y1="2.18557e-08" x2="1424.5" y2="1021" stroke="#D8D8D8"/>
<line x1="1064.5" y1="2.18557e-08" x2="1064.5" y2="1021" stroke="#D8D8D8"/>
<line x1="1352.5" y1="2.18557e-08" x2="1352.5" y2="1021" stroke="#D8D8D8"/>
<line x1="1208.5" y1="2.18557e-08" x2="1208.5" y2="1021" stroke="#D8D8D8"/>
<line x1="1496.5" y1="2.18557e-08" x2="1496.5" y2="1021" stroke="#D8D8D8"/>
<line x1="974.5" y1="2.18557e-08" x2="974.5" y2="1021" stroke="#D8D8D8"/>
<line x1="1262.5" y1="2.18557e-08" x2="1262.5" y2="1021" stroke="#D8D8D8"/>
<line x1="1118.5" y1="2.18557e-08" x2="1118.5" y2="1021" stroke="#D8D8D8"/>
<line x1="1406.5" y1="2.18557e-08" x2="1406.5" y2="1021" stroke="#D8D8D8"/>
<line x1="1046.5" y1="2.18557e-08" x2="1046.5" y2="1021" stroke="#D8D8D8"/>
<line x1="1334.5" y1="2.18557e-08" x2="1334.5" y2="1021" stroke="#D8D8D8"/>
<line x1="1190.5" y1="2.18557e-08" x2="1190.5" y2="1021" stroke="#D8D8D8"/>
<line x1="1478.5" y1="2.18557e-08" x2="1478.5" y2="1021" stroke="#D8D8D8"/>
<line x1="1010.5" y1="2.18557e-08" x2="1010.5" y2="1021" stroke="#D8D8D8"/>
<line x1="1298.5" y1="2.18557e-08" x2="1298.5" y2="1021" stroke="#D8D8D8"/>
<line x1="1154.5" y1="2.18557e-08" x2="1154.5" y2="1021" stroke="#D8D8D8"/>
<line x1="1442.5" y1="2.18557e-08" x2="1442.5" y2="1021" stroke="#D8D8D8"/>
<line x1="1082.5" y1="2.18557e-08" x2="1082.5" y2="1021" stroke="#D8D8D8"/>
<line x1="1370.5" y1="2.18557e-08" x2="1370.5" y2="1021" stroke="#D8D8D8"/>
<line x1="1226.5" y1="2.18557e-08" x2="1226.5" y2="1021" stroke="#D8D8D8"/>
<line x1="2011" y1="0.5" x2="948" y2="0.499907" stroke="#D8D8D8"/>
<line x1="2011" y1="288.5" x2="948" y2="288.5" stroke="#D8D8D8"/>
<line x1="2011" y1="144.5" x2="948" y2="144.5" stroke="#D8D8D8"/>
<line x1="2011" y1="432.5" x2="948" y2="432.5" stroke="#D8D8D8"/>
<line x1="2011" y1="72.5" x2="948" y2="72.4999" stroke="#D8D8D8"/>
<line x1="2011" y1="360.5" x2="948" y2="360.5" stroke="#D8D8D8"/>
<line x1="2011" y1="216.5" x2="948" y2="216.5" stroke="#D8D8D8"/>
<line x1="2011" y1="504.5" x2="948" y2="504.5" stroke="#D8D8D8"/>
<line x1="2011" y1="36.5" x2="948" y2="36.4999" stroke="#D8D8D8"/>
<line x1="2011" y1="324.5" x2="948" y2="324.5" stroke="#D8D8D8"/>
<line x1="2011" y1="180.5" x2="948" y2="180.5" stroke="#D8D8D8"/>
<line x1="2011" y1="468.5" x2="948" y2="468.5" stroke="#D8D8D8"/>
<line x1="2011" y1="108.5" x2="948" y2="108.5" stroke="#D8D8D8"/>
<line x1="2011" y1="396.5" x2="948" y2="396.5" stroke="#D8D8D8"/>
<line x1="2011" y1="252.5" x2="948" y2="252.5" stroke="#D8D8D8"/>
<line x1="2011" y1="540.5" x2="948" y2="540.5" stroke="#D8D8D8"/>
<line x1="2011" y1="18.5" x2="948" y2="18.4999" stroke="#D8D8D8"/>
<line x1="2011" y1="306.5" x2="948" y2="306.5" stroke="#D8D8D8"/>
<line x1="2011" y1="162.5" x2="948" y2="162.5" stroke="#D8D8D8"/>
<line x1="2011" y1="450.5" x2="948" y2="450.5" stroke="#D8D8D8"/>
<line x1="2011" y1="90.5" x2="948" y2="90.4999" stroke="#D8D8D8"/>
<line x1="2011" y1="378.5" x2="948" y2="378.5" stroke="#D8D8D8"/>
<line x1="2011" y1="234.5" x2="948" y2="234.5" stroke="#D8D8D8"/>
<line x1="2011" y1="522.5" x2="948" y2="522.5" stroke="#D8D8D8"/>
<line x1="2011" y1="54.5" x2="948" y2="54.4999" stroke="#D8D8D8"/>
<line x1="2011" y1="342.5" x2="948" y2="342.5" stroke="#D8D8D8"/>
<line x1="2011" y1="198.5" x2="948" y2="198.5" stroke="#D8D8D8"/>
<line x1="2011" y1="486.5" x2="948" y2="486.5" stroke="#D8D8D8"/>
<line x1="2011" y1="126.5" x2="948" y2="126.5" stroke="#D8D8D8"/>
<line x1="2011" y1="414.5" x2="948" y2="414.5" stroke="#D8D8D8"/>
<line x1="2011" y1="270.5" x2="948" y2="270.5" stroke="#D8D8D8"/>
<line x1="2011" y1="558.5" x2="948" y2="558.5" stroke="#D8D8D8"/>
<line x1="2011" y1="576.5" x2="948" y2="576.5" stroke="#D8D8D8"/>
<line x1="2011" y1="864.5" x2="948" y2="864.5" stroke="#D8D8D8"/>
<line x1="2011" y1="720.5" x2="948" y2="720.5" stroke="#D8D8D8"/>
<line x1="2011" y1="1008.5" x2="948" y2="1008.5" stroke="#D8D8D8"/>
<line x1="2011" y1="648.5" x2="948" y2="648.5" stroke="#D8D8D8"/>
<line x1="2011" y1="936.5" x2="948" y2="936.5" stroke="#D8D8D8"/>
<line x1="2011" y1="792.5" x2="948" y2="792.5" stroke="#D8D8D8"/>
<line x1="2011" y1="612.5" x2="948" y2="612.5" stroke="#D8D8D8"/>
<line x1="2011" y1="900.5" x2="948" y2="900.5" stroke="#D8D8D8"/>
<line x1="2011" y1="756.5" x2="948" y2="756.5" stroke="#D8D8D8"/>
<line x1="2011" y1="684.5" x2="948" y2="684.5" stroke="#D8D8D8"/>
<line x1="2011" y1="972.5" x2="948" y2="972.5" stroke="#D8D8D8"/>
<line x1="2011" y1="828.5" x2="948" y2="828.5" stroke="#D8D8D8"/>
<line x1="2011" y1="594.5" x2="948" y2="594.5" stroke="#D8D8D8"/>
<line x1="2011" y1="882.5" x2="948" y2="882.5" stroke="#D8D8D8"/>
<line x1="2011" y1="738.5" x2="948" y2="738.5" stroke="#D8D8D8"/>
<line x1="2011" y1="666.5" x2="948" y2="666.5" stroke="#D8D8D8"/>
<line x1="2011" y1="954.5" x2="948" y2="954.5" stroke="#D8D8D8"/>
<line x1="2011" y1="810.5" x2="948" y2="810.5" stroke="#D8D8D8"/>
<line x1="2011" y1="630.5" x2="948" y2="630.5" stroke="#D8D8D8"/>
<line x1="2011" y1="918.5" x2="948" y2="918.5" stroke="#D8D8D8"/>
<line x1="2011" y1="774.5" x2="948" y2="774.5" stroke="#D8D8D8"/>
<line x1="2011" y1="702.5" x2="948" y2="702.5" stroke="#D8D8D8"/>
<line x1="2011" y1="990.5" x2="948" y2="990.5" stroke="#D8D8D8"/>
<line x1="2011" y1="846.5" x2="948" y2="846.5" stroke="#D8D8D8"/>
</g>
<defs>
<clipPath id="clip0_250_1517">
<rect width="1512" height="1021" fill="white"/>
</clipPath>
</defs>
</svg>
