<svg width="21" height="30" viewBox="0 0 21 30" fill="none" xmlns="http://www.w3.org/2000/svg">
<path d="M19.0773 4.4C18.9802 4.25 18.8831 4.1 18.786 4C18.5918 3.75 18.3491 3.45 18.1064 3.25C16.1647 1.2 13.4949 0 10.5823 0C7.66974 0 4.99989 1.2 3.10673 3.2C2.86402 3.45 2.6213 3.7 2.42713 3.95C2.33005 4.1 2.18442 4.25 2.08733 4.4C0.776682 6.2 0 8.45 0 10.9C0 13.75 1.06794 16.35 2.81547 18.3C3.00964 18.55 3.20381 18.7 3.34944 18.85C3.59216 19.05 3.78633 19.25 4.02904 19.45C5.53386 20.75 6.79597 21.7 7.47557 22.45C8.49496 23.55 8.78622 24 9.27164 24.95C9.85416 26.1 10.0969 27.9 10.0969 29.65C10.0969 29.8 10.194 30 10.3881 30C10.4367 30 10.4367 30 10.4852 30C10.5338 30 10.5338 30 10.5823 30C10.7765 30 10.8736 29.8 10.8736 29.65C10.8736 27.9 11.1163 26.1 11.6988 24.95C12.1842 24.05 12.4755 23.55 13.4949 22.45C14.1744 21.75 15.4366 20.8 16.9414 19.45C17.1841 19.25 17.4268 19.05 17.621 18.85C17.7666 18.7 17.9608 18.5 18.1549 18.3C19.9025 16.35 20.9704 13.75 20.9704 10.9C21.1646 8.45 20.3879 6.2 19.0773 4.4Z" fill="black"/>
</svg>
