<svg width="22" height="30" viewBox="0 0 22 30" fill="none" xmlns="http://www.w3.org/2000/svg">
<g clip-path="url(#clip0_227_334)">
<path d="M19.8303 4.39268C19.7294 4.24293 19.6284 4.09318 19.5275 3.99334C19.3257 3.74376 19.0734 3.44426 18.8211 3.24459C16.8028 1.198 14.0275 0 11 0C7.97248 0 5.19725 1.198 3.22936 3.19468C2.97706 3.44426 2.72477 3.69384 2.52294 3.94343C2.42202 4.09318 2.27064 4.24293 2.16972 4.39268C0.80734 6.18968 0 8.43594 0 10.8819C0 13.7271 1.11009 16.3228 2.92661 18.2696C3.12844 18.5191 3.33028 18.6689 3.48165 18.8186C3.73395 19.0183 3.93578 19.218 4.18807 19.4176C5.75229 20.7155 7.06422 21.6639 7.77064 22.4126C8.83028 23.5108 9.13303 23.9601 9.63762 24.9085C10.2431 26.0566 10.4954 27.8536 10.4954 29.6007C10.4954 29.7504 10.5963 29.9501 10.7982 29.9501C10.8486 29.9501 10.8486 29.9501 10.8991 29.9501C10.9495 29.9501 10.9495 29.9501 11 29.9501C11.2018 29.9501 11.3028 29.7504 11.3028 29.6007C11.3028 27.8536 11.555 26.0566 12.1606 24.9085C12.6651 24.01 12.9679 23.5108 14.0275 22.4126C14.7339 21.7138 16.0459 20.7654 17.6101 19.4176C17.8624 19.218 18.1147 19.0183 18.3165 18.8186C18.4679 18.6689 18.6697 18.4692 18.8716 18.2696C20.6881 16.3228 21.7982 13.7271 21.7982 10.8819C22 8.43594 21.1927 6.18968 19.8303 4.39268Z" fill="black"/>
<path d="M11 14.8253C13.2016 14.8253 14.9863 13.0598 14.9863 10.8819C14.9863 8.70401 13.2016 6.93848 11 6.93848C8.79849 6.93848 7.01379 8.70401 7.01379 10.8819C7.01379 13.0598 8.79849 14.8253 11 14.8253Z" fill="white"/>
</g>
<defs>
<clipPath id="clip0_227_334">
<rect width="22" height="30" fill="white"/>
</clipPath>
</defs>
</svg>
