<svg width="15" height="21" viewBox="0 0 15 21" fill="none" xmlns="http://www.w3.org/2000/svg">
<path d="M13.6266 3.08C13.5573 2.975 13.4879 2.87 13.4186 2.8C13.2799 2.625 13.1065 2.415 12.9331 2.275C11.5462 0.84 9.63918 0 7.55878 0C5.47838 0 3.57135 0.84 2.21909 2.24C2.04573 2.415 1.87236 2.59 1.73367 2.765C1.66432 2.87 1.5603 2.975 1.49095 3.08C0.554773 4.34 0 5.915 0 7.63C0 9.625 0.762813 11.445 2.01105 12.81C2.14975 12.985 2.28844 13.09 2.39246 13.195C2.56583 13.335 2.70452 13.475 2.87789 13.615C3.95276 14.525 4.85426 15.19 5.33969 15.715C6.06783 16.485 6.27587 16.8 6.6226 17.465C7.03868 18.27 7.21205 19.53 7.21205 20.755C7.21205 20.86 7.2814 21 7.42009 21C7.45476 21 7.45476 21 7.48944 21C7.52411 21 7.52411 21 7.55878 21C7.69748 21 7.76682 20.86 7.76682 20.755C7.76682 19.53 7.94019 18.27 8.35627 17.465C8.703 16.835 8.91104 16.485 9.63918 15.715C10.1246 15.225 11.0261 14.56 12.101 13.615C12.2744 13.475 12.4477 13.335 12.5864 13.195C12.6904 13.09 12.8291 12.95 12.9678 12.81C14.2161 11.445 14.9789 9.625 14.9789 7.63C15.1176 5.915 14.5628 4.34 13.6266 3.08Z" fill="black"/>
</svg>
