<svg width="16" height="21" viewBox="0 0 16 21" fill="none" xmlns="http://www.w3.org/2000/svg">
<path d="M14.0142 3.08C13.9429 2.975 13.8716 2.87 13.8003 2.8C13.6576 2.625 13.4794 2.415 13.3011 2.275C11.8747 0.84 9.91338 0 7.7738 0C5.63423 0 3.67294 0.84 2.28222 2.24C2.10392 2.415 1.92562 2.59 1.78298 2.765C1.71166 2.87 1.60468 2.975 1.53337 3.08C0.570555 4.34 0 5.915 0 7.63C0 9.625 0.784513 11.445 2.06826 12.81C2.2109 12.985 2.35354 13.09 2.46052 13.195C2.63881 13.335 2.78145 13.475 2.95975 13.615C4.0652 14.525 4.99235 15.19 5.49159 15.715C6.24044 16.485 6.4544 16.8 6.81099 17.465C7.23891 18.27 7.41721 19.53 7.41721 20.755C7.41721 20.86 7.48853 21 7.63117 21C7.66683 21 7.66683 21 7.70249 21C7.73815 21 7.73814 21 7.7738 21C7.91644 21 7.98776 20.86 7.98776 20.755C7.98776 19.53 8.16606 18.27 8.59398 17.465C8.95057 16.835 9.16453 16.485 9.91338 15.715C10.4126 15.225 11.3398 14.56 12.4452 13.615C12.6235 13.475 12.8018 13.335 12.9445 13.195C13.0514 13.09 13.1941 12.95 13.3367 12.81C14.6205 11.445 15.405 9.625 15.405 7.63C15.5476 5.915 14.9771 4.34 14.0142 3.08Z" fill="black"/>
<path d="M7.77414 10.3947C9.32999 10.3947 10.5913 9.15681 10.5913 7.62975C10.5913 6.10268 9.32999 4.86475 7.77414 4.86475C6.2183 4.86475 4.95703 6.10268 4.95703 7.62975C4.95703 9.15681 6.2183 10.3947 7.77414 10.3947Z" fill="white"/>
</svg>
