<svg width="101" height="120" viewBox="0 0 101 120" fill="none" xmlns="http://www.w3.org/2000/svg">
<path d="M51 31.2727V22.7273L25.5 11.3636L0 0V11.0182L6.94793 14.1091C5.20185 18.1091 4.29244 22.4364 4.29244 26.8364C4.29244 31.3091 5.23823 35.7455 7.02068 39.7818L0 42.9455V54L51 31.2727ZM15.2782 17.8182L35.831 26.9818L15.3509 36.1091C14.0777 33.2 13.3866 30.0364 13.3866 26.8727C13.423 23.7455 14.0414 20.6545 15.2782 17.8182Z" fill="black"/>
<path d="M8.1335 76.4419H2.60272L1.66285 79.6594H0L3.90408 66.7173H6.83214L10.7362 79.6232H9.07337L8.1335 76.4419ZM5.24159 67.4042L3.00036 74.9959H7.69971L5.45848 67.4042H5.24159Z" fill="black"/>
<path d="M12.0738 70.4771H15.3995V71.7062H15.6164C15.8333 71.2001 16.1948 70.8386 16.6286 70.5855C17.0624 70.3325 17.5685 70.224 18.1107 70.224C19.0506 70.224 19.7735 70.5132 20.3519 71.1278C20.9303 71.7423 21.2195 72.61 21.2556 73.7668L19.7374 73.9837C19.7374 73.1522 19.5205 72.5377 19.1229 72.14C18.7252 71.7785 18.2191 71.5616 17.6408 71.5616C17.2431 71.5616 16.9178 71.6339 16.6647 71.7785C16.3755 71.9231 16.1587 72.14 15.9779 72.3931C15.761 72.6823 15.6164 72.9715 15.5441 73.333C15.4718 73.6945 15.3995 74.056 15.3995 74.4537V78.3219H17.7131V79.6594H11.8569V78.3219H13.9536V71.8146H12.0738V70.4771Z" fill="black"/>
<path d="M32.4257 76.4058C32.3172 76.9119 32.1726 77.3819 31.9196 77.8157C31.6665 78.2495 31.3773 78.611 31.0158 78.9364C30.6544 79.2618 30.2206 79.4787 29.7145 79.6594C29.2084 79.8402 28.6662 79.9125 28.0878 79.9125C27.4371 79.9125 26.8587 79.804 26.2803 79.5871C25.702 79.3702 25.1959 79.081 24.7621 78.6833C24.3283 78.2857 24.003 77.7796 23.7499 77.2011C23.4969 76.6227 23.3884 75.972 23.3884 75.2128V74.9959C23.3884 74.2729 23.4969 73.586 23.7499 73.0076C24.003 72.4292 24.3283 71.9231 24.7621 71.5254C25.1959 71.1278 25.702 70.8024 26.2803 70.5855C26.8587 70.3686 27.4733 70.2601 28.0878 70.2601C28.6662 70.2601 29.2084 70.3324 29.6783 70.5132C30.1844 70.6939 30.6182 70.9109 30.9797 71.2362C31.3412 71.5616 31.6665 71.9231 31.9196 72.3569C32.1726 72.7907 32.3172 73.2607 32.4257 73.7668L30.9797 74.0922C30.9435 73.7668 30.8712 73.4776 30.7267 73.1522C30.5821 72.863 30.4013 72.5738 30.1483 72.3569C29.8952 72.14 29.606 71.9592 29.2807 71.8146C28.9192 71.67 28.5216 71.5977 28.0878 71.5977C27.654 71.5977 27.2202 71.67 26.8587 71.8508C26.4611 72.0315 26.1357 72.2484 25.8466 72.5377C25.5574 72.8269 25.3043 73.1884 25.1597 73.6222C24.979 74.056 24.9067 74.4898 24.9067 74.9959V75.2128C24.9067 75.719 24.979 76.1889 25.1597 76.6227C25.3405 77.0204 25.5574 77.3819 25.8466 77.6711C26.1357 77.9603 26.4972 78.1772 26.8949 78.3218C27.2925 78.4664 27.7263 78.5387 28.1601 78.5387C28.63 78.5387 29.0277 78.4664 29.353 78.3218C29.6783 78.1772 29.9675 77.9965 30.2206 77.7796C30.4736 77.5627 30.6544 77.2735 30.799 76.9842C30.9435 76.695 31.052 76.3697 31.0881 76.0443L32.4257 76.4058Z" fill="black"/>
<path d="M36.5827 79.6232H35.1367V66.7173H36.5827V72.14H36.7996C37.0888 71.5615 37.4864 71.0916 37.9925 70.7301C38.4986 70.3685 39.1131 70.2239 39.8722 70.2239C40.8844 70.2239 41.6797 70.5493 42.2942 71.2C42.9087 71.8507 43.2341 72.863 43.2341 74.1644V79.6232H41.7881V74.4898C41.7881 73.5137 41.5712 72.8268 41.1374 72.3207C40.7036 71.8146 40.1253 71.5977 39.4023 71.5977C38.5347 71.5977 37.8479 71.8869 37.3418 72.5015C36.8357 73.116 36.5827 73.9114 36.5827 74.8874V79.6232Z" fill="black"/>
<path d="M46.2705 78.3219H49.4878V71.8147H46.9935V70.4771H50.9337V78.2858H53.9341V79.6233H46.2705V78.3219ZM48.8732 67.7658C48.8732 67.4043 48.9817 67.1151 49.2347 66.862C49.4878 66.6089 49.7769 66.5005 50.1384 66.5005C50.4999 66.5005 50.7891 66.6089 51.0422 66.862C51.2952 67.1151 51.4036 67.4043 51.4036 67.7658C51.4036 68.1273 51.2952 68.4165 51.0422 68.6696C50.7891 68.9226 50.4999 69.0311 50.1384 69.0311C49.7769 69.0311 49.4878 68.9226 49.2347 68.6696C49.0178 68.4165 48.8732 68.1273 48.8732 67.7658Z" fill="black"/>
<path d="M62.7544 79.6234H59.8986L56.7175 70.4772H58.4165L61.2361 78.9727H61.453L64.2727 70.4772H65.9717L62.7544 79.6234Z" fill="black"/>
<path d="M69.6589 75.5021C69.695 76.4058 69.9842 77.1289 70.4903 77.7073C71.0325 78.2495 71.7555 78.5388 72.6954 78.5388C73.1292 78.5388 73.4907 78.5026 73.816 78.3942C74.1413 78.2857 74.3944 78.1772 74.6474 77.9965C74.8643 77.8157 75.0451 77.635 75.1897 77.3819C75.3342 77.165 75.4427 76.912 75.515 76.6589L76.8887 77.0204C76.6356 77.8519 76.1657 78.5749 75.4427 79.081C74.7559 79.6233 73.816 79.8764 72.6231 79.8764C71.9724 79.8764 71.3579 79.7679 70.8156 79.551C70.2734 79.3341 69.8035 79.0087 69.4058 78.5749C69.0082 78.1411 68.719 77.6711 68.466 77.0927C68.2491 76.5143 68.1406 75.8636 68.1406 75.1767V74.7429C68.1406 74.0922 68.2491 73.5138 68.466 72.9353C68.6829 72.3931 69.0082 71.9231 69.4058 71.4893C69.8035 71.0916 70.2734 70.7663 70.8518 70.5494C71.394 70.3325 72.0086 70.224 72.6231 70.224C73.3822 70.224 74.0329 70.3686 74.5751 70.6217C75.1174 70.9109 75.5873 71.2362 75.9126 71.6339C76.2741 72.0316 76.5272 72.4654 76.6718 72.9715C76.8525 73.4414 76.9248 73.9114 76.9248 74.3091V75.5021H69.6589ZM72.6954 71.5977C72.2977 71.5977 71.9001 71.67 71.5748 71.7785C71.2133 71.9231 70.9241 72.1039 70.6349 72.3208C70.3819 72.5377 70.165 72.8269 69.9842 73.1522C69.8035 73.4776 69.695 73.803 69.6589 74.1645H75.5511C75.515 73.7668 75.4427 73.4053 75.262 73.0799C75.0812 72.7546 74.8643 72.5015 74.6113 72.2846C74.3582 72.0677 74.0329 71.887 73.7075 71.7785C73.4184 71.67 73.0569 71.5977 72.6954 71.5977Z" fill="black"/>
<path d="M92.2157 75.1767C92.2157 75.9359 92.1073 76.6227 91.8543 77.2012C91.6012 77.7796 91.2759 78.2857 90.8421 78.6834C90.4083 79.081 89.9384 79.3702 89.36 79.5871C88.8177 79.804 88.2032 79.9125 87.6248 79.9125C87.0103 79.9125 86.4319 79.804 85.8897 79.5871C85.3475 79.3702 84.8414 79.081 84.4437 78.6834C84.0461 78.2857 83.6846 77.7796 83.4316 77.2012C83.1785 76.6227 83.0701 75.9359 83.0701 75.1767V74.9598C83.0701 74.2006 83.1785 73.5499 83.4316 72.9715C83.6846 72.3931 84.0099 71.887 84.4437 71.4893C84.8775 71.0916 85.3474 70.7663 85.9258 70.5494C86.4681 70.3325 87.0464 70.224 87.661 70.224C88.2755 70.224 88.8539 70.3325 89.3961 70.5494C89.9384 70.7663 90.4444 71.0555 90.8782 71.4893C91.312 71.887 91.6374 72.3931 91.8904 72.9715C92.1434 73.5499 92.2519 74.2368 92.2519 74.9598V75.1767H92.2157ZM87.6248 78.5388C88.0586 78.5388 88.4924 78.4665 88.8539 78.3219C89.2154 78.1772 89.5407 77.9603 89.8299 77.635C90.1191 77.3458 90.336 76.9843 90.4806 76.5866C90.6252 76.1889 90.7336 75.719 90.7336 75.1767V74.9598C90.7336 74.4537 90.6613 74.0199 90.4806 73.5861C90.336 73.1884 90.083 72.8269 89.8299 72.5377C89.5407 72.2485 89.2154 71.9954 88.8177 71.8508C88.4201 71.67 88.0225 71.5977 87.5887 71.5977C87.1549 71.5977 86.7573 71.67 86.3596 71.8508C85.962 72.0316 85.6366 72.2485 85.3475 72.5377C85.0583 72.8269 84.8414 73.1884 84.6968 73.5861C84.5522 73.9837 84.4437 74.4537 84.4437 74.9598V75.1767C84.4437 75.6828 84.516 76.1528 84.6968 76.5866C84.8414 76.9843 85.0944 77.3458 85.3475 77.635C85.6366 77.9242 85.962 78.1411 86.3235 78.3219C86.7573 78.4665 87.191 78.5388 87.6248 78.5388Z" fill="black"/>
<path d="M92.9387 70.477H95.7583V68.1633C95.7583 67.7295 95.9029 67.4042 96.156 67.1149C96.409 66.8619 96.7705 66.7173 97.1682 66.7173H100.783V68.0549H97.6742C97.3489 68.0549 97.1682 68.2356 97.1682 68.5971V70.477H101V71.8146H97.1682V79.6232H95.7222V71.8146H92.9026V70.477H92.9387Z" fill="black"/>
<path d="M8.02497 88.4444C8.02497 88.0106 7.95268 87.6491 7.77193 87.3238C7.59119 86.9984 7.37429 86.7453 7.0851 86.5284C6.79591 86.3115 6.47057 86.1669 6.10908 86.0585C5.74759 85.95 5.34996 85.8777 4.95232 85.8777C4.59083 85.8777 4.26549 85.9139 3.94015 86.0223C3.61481 86.1308 3.32562 86.2392 3.07258 86.42C2.81953 86.6007 2.60264 86.8176 2.45804 87.0707C2.31345 87.3237 2.24115 87.613 2.24115 87.9383V88.0468C2.24115 88.4083 2.31345 88.6975 2.45804 88.9506C2.60264 89.2036 2.81953 89.4205 3.10872 89.6013C3.39792 89.782 3.7594 89.9266 4.19319 90.0351C4.62698 90.1435 5.13306 90.252 5.71144 90.3243C7.04895 90.5412 8.06112 90.9389 8.7118 91.5173C9.36248 92.0957 9.68782 92.891 9.68782 93.8671V94.084C9.68782 94.6263 9.57938 95.1324 9.39863 95.6024C9.21789 96.0723 8.9287 96.47 8.56721 96.7953C8.20572 97.1207 7.73578 97.3738 7.1574 97.5545C6.61517 97.7353 5.96449 97.8437 5.24151 97.8437C4.41008 97.8437 3.68711 97.7353 3.07258 97.4822C2.4219 97.2292 1.91581 96.9038 1.48202 96.47C1.04824 96.1085 0.722897 95.6024 0.506004 95.0239C0.289111 94.4455 0.180664 93.831 0.180664 93.1441V92.6018H1.73507V93.0356C1.73507 94.1563 2.06041 95.0239 2.67494 95.5662C3.28947 96.1446 4.15704 96.3977 5.27766 96.3977C6.25368 96.3977 6.97666 96.1808 7.44659 95.747C7.91653 95.3131 8.16957 94.7709 8.16957 94.0479V93.9394C8.16957 93.2525 7.91653 92.7464 7.41044 92.3849C6.90436 92.0234 6.10908 91.7703 4.98847 91.6257C4.33779 91.5534 3.7594 91.4088 3.21717 91.2281C2.71109 91.0473 2.24115 90.8304 1.87966 90.5412C1.51817 90.252 1.22898 89.8905 1.04824 89.4928C0.867493 89.0952 0.759046 88.6252 0.759046 88.0468V87.8299C0.759046 87.3237 0.867493 86.8538 1.08439 86.4561C1.30128 86.0223 1.59047 85.6608 1.95196 85.3716C2.31345 85.0824 2.78338 84.8293 3.28947 84.6486C3.79555 84.4678 4.37394 84.3955 5.02462 84.3955C5.74759 84.3955 6.39827 84.504 6.97666 84.7209C7.55504 84.9378 8.02497 85.227 8.42261 85.5523C8.82025 85.9139 9.10944 86.3115 9.32633 86.7815C9.54323 87.2514 9.61552 87.7576 9.61552 88.2637V89.0229H8.06112V88.4444H8.02497Z" fill="black"/>
<path d="M13.3388 101.314H11.8928V88.4806H13.3388V89.9266H13.5557C13.881 89.3844 14.3148 88.9506 14.8932 88.6614C15.4716 88.3721 16.0861 88.2275 16.7368 88.2275C17.3152 88.2275 17.8212 88.336 18.3273 88.5529C18.8334 88.7698 19.2672 89.059 19.6648 89.4567C20.0625 89.8543 20.3517 90.3243 20.6047 90.9027C20.8216 91.4811 20.93 92.1319 20.93 92.891V93.2525C20.93 94.0117 20.8216 94.6624 20.6047 95.2409C20.3878 95.8193 20.0625 96.2892 19.701 96.6869C19.3033 97.0846 18.8696 97.3738 18.3273 97.5907C17.8212 97.8076 17.279 97.8799 16.7006 97.8799C16.4114 97.8799 16.0861 97.8437 15.7969 97.7714C15.4716 97.6991 15.1824 97.5907 14.9293 97.4461C14.6401 97.3015 14.3871 97.1207 14.1702 96.94C13.9533 96.7231 13.7364 96.5061 13.5918 96.2169H13.3749V101.314H13.3388ZM16.3753 96.5061C16.8091 96.5061 17.2067 96.4338 17.6043 96.2892C17.9658 96.1446 18.2912 95.9277 18.5804 95.6385C18.8696 95.3493 19.0865 95.024 19.231 94.5901C19.3756 94.1563 19.4479 93.7225 19.4479 93.2164V92.8549C19.4479 92.3488 19.3756 91.915 19.231 91.5173C19.0865 91.1196 18.8696 90.7581 18.5804 90.4689C18.2912 90.1797 17.9658 89.9628 17.6043 89.782C17.2429 89.6374 16.8091 89.529 16.4114 89.529C16.0138 89.529 15.5439 89.6374 15.1824 89.8182C14.8209 89.9989 14.4955 90.2159 14.2064 90.5051C13.9172 90.7943 13.7003 91.1558 13.5557 91.5534C13.4111 91.9511 13.3026 92.4211 13.3026 92.9272V93.1441C13.3026 93.6502 13.3749 94.1202 13.5557 94.5178C13.7003 94.9155 13.9172 95.277 14.2064 95.5662C14.4955 95.8554 14.8209 96.0723 15.1824 96.2531C15.5439 96.4338 15.9415 96.5061 16.3753 96.5061Z" fill="black"/>
<path d="M30.1481 96.0724H29.9312C29.642 96.6869 29.2443 97.1569 28.7021 97.4461C28.196 97.7353 27.6176 97.8799 27.0393 97.8799C26.4247 97.8799 25.8825 97.7715 25.3764 97.5907C24.8703 97.3738 24.4004 97.0846 24.0027 96.6869C23.6051 96.2893 23.3159 95.7831 23.099 95.2047C22.8821 94.6263 22.7737 93.9394 22.7737 93.1803V92.8911C22.7737 92.1319 22.8821 91.4812 23.099 90.9027C23.3159 90.3243 23.6413 89.8182 24.0027 89.4205C24.4004 89.0229 24.8342 88.7337 25.3764 88.5168C25.8825 88.2999 26.4247 88.1914 27.0031 88.1914C27.6176 88.1914 28.196 88.336 28.7021 88.5891C29.2082 88.8783 29.6058 89.2759 29.895 89.8544H30.1119V88.4083H31.5579V95.747C31.5579 96.1085 31.7386 96.2893 32.0639 96.2893H32.5339V97.6268H31.5579C31.1241 97.6268 30.7987 97.4822 30.5457 97.2292C30.2927 96.9761 30.1481 96.6146 30.1481 96.1808V96.0724ZM27.1838 96.5062C27.6176 96.5062 28.0153 96.4339 28.3768 96.2531C28.7383 96.1085 29.0636 95.8554 29.3166 95.5662C29.5697 95.277 29.7866 94.9155 29.9312 94.5179C30.0758 94.1202 30.1481 93.6502 30.1481 93.1441V92.9272C30.1481 92.4211 30.0758 91.9873 29.9312 91.5535C29.7866 91.1558 29.5697 90.7943 29.3166 90.5051C29.0636 90.2159 28.7383 89.9628 28.3768 89.8182C28.0153 89.6375 27.6176 89.5651 27.22 89.5651C26.7862 89.5651 26.3886 89.6375 26.0271 89.8182C25.6656 89.9628 25.3764 90.2159 25.0872 90.5051C24.8342 90.7943 24.6173 91.1558 24.4727 91.5535C24.3281 91.9511 24.2558 92.4211 24.2558 92.9272V93.2164C24.2558 94.2648 24.545 95.0601 25.0872 95.6747C25.5933 96.217 26.3163 96.5062 27.1838 96.5062Z" fill="black"/>
<path d="M35.209 88.4806H37.3056V84.6847H38.7516V88.4444H41.8965V89.782H38.7516V95.7469C38.7516 96.1085 38.9323 96.2892 39.2577 96.2892H41.8604V97.6268H38.7516C38.3178 97.6268 37.9924 97.4822 37.7394 97.2291C37.4864 96.9761 37.3418 96.6146 37.3418 96.1808V89.782H35.2451V88.4806H35.209Z" fill="black"/>
<path d="M46.2344 96.2891H49.4516V89.7819H46.9574V88.4443H50.8976V96.2529H53.8979V97.5905H46.2705V96.2891H46.2344ZM48.8732 85.7329C48.8732 85.3714 48.9817 85.0822 49.2347 84.8292C49.4878 84.5761 49.777 84.4677 50.1385 84.4677C50.4999 84.4677 50.7891 84.5761 51.0422 84.8292C51.2952 85.0822 51.4037 85.3714 51.4037 85.7329C51.4037 86.0945 51.2591 86.3837 51.0422 86.6367C50.7891 86.8898 50.4999 86.9982 50.1385 86.9982C49.777 86.9982 49.4878 86.8898 49.2347 86.6367C48.9817 86.3837 48.8732 86.0945 48.8732 85.7329Z" fill="black"/>
<path d="M63.5858 96.0724H63.3689C63.0797 96.6869 62.6821 97.1569 62.1398 97.4461C61.6338 97.7353 61.0554 97.8799 60.477 97.8799C59.8625 97.8799 59.3202 97.7715 58.8141 97.5907C58.3081 97.3738 57.8381 97.0846 57.4405 96.6869C57.0428 96.2893 56.7537 95.7831 56.5368 95.2047C56.3199 94.6263 56.2114 93.9394 56.2114 93.1803V92.8911C56.2114 92.1319 56.3199 91.4812 56.5368 90.9027C56.7537 90.3243 57.079 89.8182 57.4405 89.4205C57.8381 89.0229 58.2719 88.7337 58.8141 88.5168C59.3202 88.2999 59.8625 88.1914 60.4408 88.1914C61.0554 88.1914 61.6338 88.336 62.1398 88.5891C62.6459 88.8783 63.0436 89.2759 63.3328 89.8544H63.5497V88.4083H64.9956V95.747C64.9956 96.1085 65.1763 96.2893 65.5017 96.2893H65.9716V97.6268H64.9956C64.5618 97.6268 64.2365 97.4822 63.9834 97.2292C63.7304 96.9761 63.5858 96.6146 63.5858 96.1808V96.0724ZM60.6216 96.5062C61.0554 96.5062 61.453 96.4339 61.8145 96.2531C62.176 96.1085 62.5013 95.8554 62.7544 95.5662C63.0074 95.277 63.2243 94.9155 63.3689 94.5179C63.5135 94.1202 63.5858 93.6502 63.5858 93.1441V92.9272C63.5858 92.4211 63.5135 91.9873 63.3689 91.5535C63.2243 91.1196 63.0074 90.7943 62.7544 90.5051C62.5013 90.2159 62.176 89.9628 61.8145 89.8182C61.453 89.6375 61.0554 89.5651 60.6577 89.5651C60.224 89.5651 59.8263 89.6375 59.4648 89.8182C59.1033 89.9628 58.8141 90.2159 58.525 90.5051C58.2719 90.7943 58.055 91.1558 57.9104 91.5535C57.7658 91.9511 57.6935 92.4211 57.6935 92.9272V93.2164C57.6935 94.2648 57.9827 95.0601 58.525 95.6747C59.031 96.217 59.754 96.5062 60.6216 96.5062Z" fill="black"/>
<path d="M68.2129 96.2892H71.5386V86.0223H68.719V84.6847H72.9845V96.2892H76.3102V97.6268H68.2129V96.2892Z" fill="black"/>
<path d="M2.13277 115.558H0.578369V102.616H2.13277V108.327H2.56656L7.51896 102.616H9.43485V102.724L4.08481 108.978V109.195L9.65174 115.449V115.558H7.6997L2.56656 109.81H2.13277V115.558Z" fill="black"/>
<path d="M13.2668 115.558H11.8208V106.411H13.2668V107.966H13.4836C14.062 106.773 15.0381 106.158 16.4479 106.158C17.4962 106.158 18.3638 106.484 18.9783 107.134C19.5928 107.785 19.9182 108.797 19.9182 110.099V115.558H18.4722V110.388C18.4722 109.412 18.2553 108.725 17.8215 108.219C17.3877 107.713 16.8093 107.496 16.0864 107.496C15.2188 107.496 14.532 107.785 14.0259 108.4C13.5198 109.014 13.2668 109.81 13.2668 110.786V115.558Z" fill="black"/>
<path d="M31.7387 111.075C31.7387 111.834 31.6302 112.521 31.3772 113.099C31.1242 113.678 30.7988 114.184 30.365 114.582C29.9312 114.979 29.4613 115.269 28.8829 115.485C28.3407 115.702 27.7262 115.811 27.1478 115.811C26.5332 115.811 25.9549 115.702 25.4126 115.485C24.8704 115.269 24.3643 114.979 23.9667 114.582C23.569 114.184 23.2075 113.678 22.9545 113.099C22.7015 112.521 22.593 111.834 22.593 111.075V110.858C22.593 110.099 22.7015 109.448 22.9545 108.87C23.2075 108.291 23.5329 107.785 23.9667 107.388C24.4005 106.99 24.8704 106.665 25.4488 106.448C25.991 106.231 26.5694 106.122 27.1839 106.122C27.7985 106.122 28.3768 106.231 28.9191 106.448C29.4613 106.665 29.9674 106.954 30.4012 107.388C30.835 107.785 31.1603 108.291 31.4133 108.87C31.6664 109.448 31.7748 110.135 31.7748 110.858V111.075H31.7387ZM27.1478 114.437C27.5816 114.437 28.0154 114.365 28.3768 114.22C28.7383 114.076 29.0637 113.859 29.3529 113.533C29.642 113.244 29.8589 112.883 30.0035 112.485C30.1481 112.087 30.2566 111.617 30.2566 111.075V110.858C30.2566 110.352 30.1843 109.918 30.0035 109.484C29.8589 109.087 29.6059 108.725 29.3529 108.436C29.0637 108.147 28.7383 107.894 28.3407 107.749C27.9431 107.568 27.5454 107.496 27.1116 107.496C26.6778 107.496 26.2802 107.568 25.8826 107.749C25.4849 107.93 25.1596 108.147 24.8704 108.436C24.5812 108.725 24.3643 109.087 24.2197 109.484C24.0751 109.882 23.9667 110.352 23.9667 110.858V111.075C23.9667 111.581 24.039 112.051 24.2197 112.485C24.3643 112.883 24.6174 113.244 24.8704 113.533C25.1596 113.823 25.4849 114.039 25.8464 114.22C26.2802 114.365 26.714 114.437 27.1478 114.437Z" fill="black"/>
<path d="M42.2941 115.558H39.6191L38.4985 107.062H38.3177L37.1971 115.558H34.5583L33.1123 106.411H34.5944L35.8235 114.907H36.0404L37.1248 106.411H39.7998L40.8843 114.907H41.1012L42.3303 106.411H43.8124L42.2941 115.558Z" fill="black"/>
<path d="M46.126 114.22H49.4517V103.953H46.6321V102.616H50.8976V114.22H54.2233V115.558H46.126V114.22Z" fill="black"/>
<path d="M57.5851 111.4C57.6213 112.304 57.9105 113.027 58.4166 113.606C58.9588 114.148 59.6818 114.437 60.6217 114.437C61.0554 114.437 61.4169 114.401 61.7423 114.292C62.0676 114.184 62.3207 114.076 62.5737 113.895C62.7906 113.714 62.9713 113.533 63.1159 113.28C63.2605 113.063 63.369 112.81 63.4413 112.557L64.8149 112.919C64.5619 113.75 64.092 114.473 63.369 114.979C62.6821 115.522 61.7423 115.775 60.5494 115.775C59.8987 115.775 59.2841 115.666 58.7419 115.449C58.1997 115.232 57.7297 114.907 57.3321 114.473C56.9345 114.039 56.6453 113.569 56.3922 112.991C56.1753 112.413 56.0669 111.762 56.0669 111.075V110.641C56.0669 109.99 56.1753 109.412 56.3922 108.834C56.6091 108.291 56.9345 107.821 57.3321 107.388C57.7297 106.99 58.1997 106.665 58.7781 106.448C59.3203 106.231 59.9348 106.122 60.5494 106.122C61.3085 106.122 61.9592 106.267 62.5014 106.52C63.0436 106.809 63.5136 107.135 63.8389 107.532C64.2004 107.93 64.4534 108.364 64.598 108.87C64.7788 109.34 64.8511 109.81 64.8511 110.207V111.4H57.5851ZM60.6578 107.496C60.2602 107.496 59.8625 107.568 59.5372 107.677C59.1757 107.821 58.8865 108.002 58.5973 108.219C58.3443 108.436 58.1274 108.725 57.9466 109.051C57.7659 109.376 57.6574 109.701 57.6213 110.063H63.5136C63.4774 109.665 63.4051 109.304 63.2244 108.978C63.0436 108.653 62.8267 108.4 62.5737 108.183C62.3207 107.966 61.9953 107.785 61.67 107.677C61.3808 107.568 61.0193 107.496 60.6578 107.496Z" fill="black"/>
<path d="M74.9006 114.148H74.6837C74.5391 114.437 74.3583 114.69 74.1053 114.871C73.8884 115.088 73.6354 115.269 73.3823 115.377C73.1293 115.522 72.8401 115.63 72.5509 115.666C72.2617 115.738 71.9725 115.775 71.7195 115.775C71.1049 115.775 70.5266 115.666 70.0205 115.449C69.4782 115.232 69.0445 114.943 68.6107 114.545C68.213 114.148 67.8877 113.678 67.6708 113.063C67.4539 112.485 67.3455 111.798 67.3455 111.075V110.786C67.3455 110.063 67.4539 109.376 67.7069 108.797C67.9238 108.219 68.2492 107.713 68.6468 107.315C69.0445 106.918 69.5144 106.628 70.0205 106.411C70.5627 106.195 71.1049 106.086 71.6833 106.086C72.2979 106.086 72.9124 106.231 73.4546 106.484C73.9968 106.773 74.4306 107.171 74.7198 107.749H74.9367V102.616H76.3827V115.522H74.9367V114.148H74.9006ZM71.8641 114.437C72.2979 114.437 72.6955 114.365 73.057 114.184C73.4185 114.003 73.7438 113.786 74.033 113.497C74.3222 113.208 74.5391 112.846 74.6837 112.449C74.8283 112.051 74.9367 111.581 74.9367 111.075V110.858C74.9367 110.352 74.8644 109.918 74.6837 109.484C74.5029 109.051 74.3222 108.725 74.033 108.436C73.7438 108.147 73.4185 107.894 73.057 107.749C72.6955 107.568 72.2979 107.496 71.8641 107.496C71.4303 107.496 71.0326 107.568 70.6712 107.749C70.3097 107.894 69.9843 108.147 69.6951 108.436C69.4059 108.725 69.189 109.087 69.0445 109.484C68.8999 109.882 68.8276 110.352 68.8276 110.822V111.111C68.8276 111.617 68.8999 112.087 69.0445 112.485C69.189 112.883 69.4059 113.244 69.6951 113.533C69.9843 113.822 70.3097 114.039 70.6712 114.184C70.9965 114.365 71.3941 114.437 71.8641 114.437Z" fill="black"/>
<path d="M86.0705 114.148H85.8536C85.5644 114.69 85.1668 115.124 84.6607 115.377C84.1546 115.666 83.5762 115.774 82.9979 115.774C82.3833 115.774 81.8049 115.666 81.2627 115.449C80.7205 115.232 80.2505 114.943 79.8168 114.545C79.4191 114.148 79.0938 113.678 78.8407 113.063C78.5877 112.485 78.4792 111.798 78.4792 111.075V110.786C78.4792 110.063 78.5877 109.376 78.8407 108.797C79.0938 108.219 79.4191 107.713 79.8168 107.315C80.2144 106.917 80.6843 106.628 81.2266 106.411C81.7688 106.194 82.3472 106.086 82.9256 106.086C83.5762 106.086 84.1546 106.231 84.6607 106.52C85.1668 106.809 85.5644 107.243 85.8175 107.785H86.0344V106.339H87.4803V117.799C87.4803 118.233 87.3357 118.558 87.0827 118.847C86.8296 119.1 86.4682 119.245 86.0705 119.245H80.1059V117.907H85.5644C85.8898 117.907 86.0705 117.727 86.0705 117.365V114.148ZM82.9979 114.437C83.4316 114.437 83.8293 114.365 84.1908 114.184C84.5523 114.003 84.8776 113.786 85.1668 113.497C85.456 113.208 85.6729 112.846 85.8175 112.449C85.9621 112.051 86.0705 111.581 86.0705 111.075V110.858C86.0705 110.352 85.9982 109.918 85.8175 109.484C85.6367 109.05 85.456 108.725 85.1668 108.436C84.8776 108.147 84.5523 107.893 84.1908 107.749C83.8293 107.568 83.4316 107.496 82.9979 107.496C82.5641 107.496 82.1664 107.568 81.8049 107.749C81.4435 107.893 81.1181 108.147 80.8289 108.436C80.5397 108.725 80.3228 109.086 80.1782 109.484C80.0336 109.882 79.9613 110.352 79.9613 110.822V111.111C79.9613 111.617 80.0336 112.087 80.1782 112.485C80.3228 112.882 80.5397 113.244 80.8289 113.533C81.1181 113.822 81.4435 114.039 81.8049 114.184C82.1303 114.365 82.5641 114.437 82.9979 114.437Z" fill="black"/>
<path d="M91.4206 111.4C91.4567 112.304 91.7459 113.027 92.252 113.606C92.7943 114.148 93.5172 114.437 94.4571 114.437C94.8909 114.437 95.2524 114.401 95.5777 114.292C95.903 114.184 96.1561 114.076 96.4091 113.895C96.626 113.714 96.8068 113.533 96.9514 113.28C97.096 113.063 97.2044 112.81 97.2767 112.557L98.6504 112.919C98.3973 113.75 97.9274 114.473 97.2044 114.979C96.5176 115.522 95.5777 115.775 94.3848 115.775C93.7341 115.775 93.1196 115.666 92.5774 115.449C92.0351 115.232 91.5652 114.907 91.1676 114.473C90.7699 114.039 90.4807 113.569 90.2277 112.991C90.0108 112.413 89.9023 111.762 89.9023 111.075V110.641C89.9023 109.99 90.0108 109.412 90.2277 108.834C90.4446 108.291 90.7699 107.821 91.1676 107.388C91.5652 106.99 92.0351 106.665 92.6135 106.448C93.1557 106.231 93.7703 106.122 94.3848 106.122C95.1439 106.122 95.7946 106.267 96.3368 106.52C96.8791 106.809 97.349 107.135 97.6743 107.532C98.0358 107.93 98.2889 108.364 98.4335 108.87C98.5781 109.376 98.6865 109.81 98.6865 110.207V111.4H91.4206ZM94.4932 107.496C94.0956 107.496 93.698 107.568 93.3726 107.677C93.0111 107.821 92.722 108.002 92.4328 108.219C92.1797 108.436 91.9628 108.725 91.7821 109.051C91.6013 109.376 91.4929 109.701 91.4567 110.063H97.349C97.3128 109.665 97.2406 109.304 97.0598 108.978C96.8791 108.653 96.6622 108.4 96.4091 108.183C96.1561 107.966 95.8308 107.785 95.5054 107.677C95.1801 107.568 94.8547 107.496 94.4932 107.496Z" fill="black"/>
</svg>
